<svg width="48" height="48" viewBox="0 0 48 48" aria-label="Cart">
<path d="M5.99988 4.59375C5.22323 4.59375 4.59363 5.22335 4.59363 6C4.59363 6.77665 5.22323 7.40625 5.99988 7.40625L5.99988 6L5.99988 4.59375ZM10.9999 6L12.3641 5.65893C12.2076 5.03292 11.6452 4.59375 10.9999 4.59375L10.9999 6ZM37.9999 33.4062C38.7765 33.4062 39.4061 32.7766 39.4061 32C39.4061 31.2233 38.7765 30.5937 37.9999 30.5937V32V33.4062ZM41.9999 10L43.3641 10.3411C43.4692 9.92096 43.3748 9.4759 43.1083 9.13458C42.8418 8.79326 42.4329 8.59375 41.9999 8.59375V10ZM37.9999 26V27.4062C38.6452 27.4062 39.2076 26.9671 39.3641 26.3411L37.9999 26ZM5.99988 6L5.99988 7.40625L10.9999 7.40625L10.9999 6L10.9999 4.59375L5.99988 4.59375L5.99988 6ZM10.9999 6L9.63561 6.34107L10.6356 10.3411L11.9999 10L13.3641 9.65893L12.3641 5.65893L10.9999 6ZM11.9999 10L10.6356 10.3411L14.6356 26.3411L15.9999 26L17.3641 25.6589L13.3641 9.65893L11.9999 10ZM15.9999 26V24.5937H14.9999V26V27.4062H15.9999V26ZM14.9999 32V33.4062H37.9999V32V30.5937H14.9999V32ZM11.9999 29H10.5936C10.5936 31.4335 12.5664 33.4062 14.9999 33.4062V32V30.5937C14.1197 30.5937 13.4061 29.8802 13.4061 29H11.9999ZM14.9999 26V24.5937C12.5664 24.5937 10.5936 26.5665 10.5936 29H11.9999H13.4061C13.4061 28.1198 14.1197 27.4062 14.9999 27.4062V26ZM11.9999 10V11.4062H41.9999V10V8.59375H11.9999V10ZM41.9999 10L40.6356 9.65893L36.6356 25.6589L37.9999 26L39.3641 26.3411L43.3641 10.3411L41.9999 10ZM37.9999 26V24.5937H15.9999V26V27.4062H37.9999V26ZM37.9999 40H36.5936C36.5936 40.3279 36.3278 40.5937 35.9999 40.5937V42V43.4062C37.8811 43.4062 39.4061 41.8812 39.4061 40H37.9999ZM35.9999 42V40.5937C35.672 40.5937 35.4061 40.3279 35.4061 40H33.9999H32.5936C32.5936 41.8812 34.1187 43.4062 35.9999 43.4062V42ZM33.9999 40H35.4061C35.4061 39.6721 35.672 39.4062 35.9999 39.4062V38V36.5937C34.1187 36.5937 32.5936 38.1188 32.5936 40H33.9999ZM35.9999 38V39.4062C36.3278 39.4062 36.5936 39.6721 36.5936 40H37.9999H39.4061C39.4061 38.1188 37.8811 36.5937 35.9999 36.5937V38ZM17.9999 40H16.5936C16.5936 40.3279 16.3278 40.5937 15.9999 40.5937V42V43.4062C17.8811 43.4062 19.4061 41.8812 19.4061 40H17.9999ZM15.9999 42V40.5937C15.672 40.5937 15.4061 40.3279 15.4061 40H13.9999H12.5936C12.5936 41.8812 14.1187 43.4062 15.9999 43.4062V42ZM13.9999 40H15.4061C15.4061 39.6721 15.672 39.4062 15.9999 39.4062V38V36.5937C14.1187 36.5937 12.5936 38.1188 12.5936 40H13.9999ZM15.9999 38V39.4062C16.3278 39.4062 16.5936 39.6721 16.5936 40H17.9999H19.4061C19.4061 38.1188 17.8811 36.5937 15.9999 36.5937V38Z" fill="black"/>
</svg>
