<svg width="147" height="49" viewBox="0 0 78 109" fill="none" xmlns="http://www.w3.org/2000/svg" aria-label="Chefy">
<path d="M34.1944 0.0180482C32.5217 0.0632179 30.8715 0.198727 29.2214 0.44716C26.7801 0.691077 24.3388 1.91518 21.6489 3.13476C18.2265 4.59825 14.7997 6.06627 11.6215 6.31019C6.24156 8.0176 4.53265 10.4613 3.06787 12.4126C3.06787 12.6565 2.82374 12.9004 2.82374 12.9004C0.866184 16.8076 0.622055 20.7148 1.35444 24.622C2.08683 27.0657 3.06335 29.2699 3.79574 31.4652C5.51369 36.1086 7.2226 40.4991 7.95499 45.6304C8.6919 47.0984 9.41977 49.0497 9.90803 51.0056C11.1287 54.9128 12.3584 59.3078 16.0248 62.7271L16.052 62.7136C16.1288 62.7994 16.1876 62.8942 16.269 62.971L16.3639 62.9259L16.2735 60.288C19.203 55.8884 23.3532 52.9569 29.2214 51.7373C31.5723 51.2405 34.1085 51.0598 36.7397 51.1592C39.4788 51.233 42.2029 51.5902 44.8683 52.2252C51.4689 53.9326 56.6001 57.3564 56.8488 60.288C56.9708 61.887 57.0296 63.4273 56.9934 64.9675C56.9934 65.2566 56.9753 65.5457 56.9618 65.8393L57.5766 66.1465C57.9468 65.9328 58.2649 65.6396 58.5079 65.2882L58.5215 65.2747L58.5486 65.2386C58.7294 64.9946 58.8877 64.6785 59.0459 64.3623C59.1363 64.1951 59.2177 63.9738 59.2991 63.7796C60.2259 61.6927 60.9357 58.5715 61.7313 54.9128C61.9755 53.6932 62.2286 52.713 62.4683 51.7373C64.4258 47.3423 67.1112 43.4352 69.8012 39.7674C74.2 33.6695 78.3548 28.0458 77.8665 21.4511C69.8012 5.81784 58.5531 3.37416 52.685 2.15457C51.7085 1.91066 51.2247 1.91066 50.4923 1.66674C44.4433 0.564601 39.2172 -0.121978 34.1944 0.0180482ZM56.9934 64.9675C57.0191 63.486 56.9709 62.0041 56.8488 60.5274C56.6046 57.3519 51.4689 53.9326 44.6242 52.2252C42.0345 51.6278 39.3951 51.2709 36.7397 51.1592C34.3819 51.0802 32.0228 51.2742 29.7097 51.7373C24.0856 52.9569 19.6913 55.8929 17.0014 60.2834L17.2319 66.7472C20.2474 65.1437 25.0667 62.7994 31.4276 62.2303C31.7215 62.2077 32.0425 62.2077 32.3499 62.1896C32.8788 62.1309 33.5524 61.9909 34.3572 61.9909C41.6223 61.9909 49.1315 64.4029 56.4057 69.4348C56.582 68.1972 56.677 66.955 56.7222 65.7174L56.9256 65.8213C56.9346 65.5367 56.9889 65.2476 56.9934 64.963V64.9675ZM34.1899 0.261965C34.7505 0.243897 35.3382 0.307134 35.9033 0.311651C34.8635 0.302617 33.8282 0.325202 32.7974 0.383923C33.2631 0.356821 33.7242 0.275515 34.1899 0.261965ZM30.5008 0.587186C30.1572 0.627839 29.8091 0.645907 29.4655 0.695594C25.7719 1.22408 21.4454 3.86199 17.033 5.41583C18.6379 4.81959 20.2609 4.0788 21.893 3.38319C24.3343 2.16361 27.0242 0.93951 29.2214 0.695594C29.6464 0.632356 30.0759 0.636873 30.5008 0.587186ZM29.4655 1.67126C30.1979 1.67126 31.179 1.67126 31.9113 1.91518C31.3626 1.78971 30.7952 1.76826 30.2386 1.85194C30.7267 1.88802 31.2075 1.99138 31.6672 2.15909C34.2894 6.67606 29.7413 26.0042 28.5975 38.9679C29.1966 43.0794 29.8945 47.176 30.6907 51.254C27.5125 43.1958 24.3343 29.026 23.8415 18.0362C23.5974 13.6412 23.846 9.72953 24.8271 6.80254C25.7991 3.86199 27.2684 1.91066 29.461 1.66674L29.4655 1.67126ZM43.6431 2.89084C39.9812 12.4216 39.4929 30.4895 39.2488 36.1086C39.0047 38.5478 39.2488 43.923 39.4929 47.8302C39.4929 48.8058 39.7371 49.7815 39.7371 50.7617C39.7371 49.7815 39.4929 49.0497 39.4929 48.0741C37.5354 33.421 35.0896 15.8365 43.6431 2.89084ZM58.7973 4.60729C57.5766 14.373 52.4454 19.0164 50.7365 28.5472C50.2482 36.1177 49.2672 44.9077 49.023 52.4781C48.7789 44.9077 49.023 36.8494 50.2437 28.7866C51.4643 20.4844 54.1543 12.1777 58.7973 4.60729ZM12.8195 7.45298C13.8282 7.44151 14.8015 7.82401 15.5321 8.51898L15.4688 8.48736C16.07 8.90293 16.6713 9.43141 17.2455 10.2219C16.3232 14.5943 18.3983 23.9173 17.4263 31.3161C17.7699 38.3084 17.7473 45.6801 21.2646 51.4573C16.8341 44.6367 15.948 35.9325 15.2879 27.8064C14.7771 22.8829 14.3657 18.3344 13.1902 14.6937C12.5392 13.316 11.9741 12.0964 11.4542 10.9807C11.3457 10.8136 11.2553 10.6239 11.1377 10.4658C10.6948 10.0058 10.4344 9.40055 10.4053 8.7629C10.4053 8.51898 10.6449 8.03115 10.8936 8.03115C11.1377 7.78723 11.6215 7.7782 11.8656 7.53428C12.1784 7.47427 12.5011 7.44702 12.8195 7.45298ZM6.7253 10.2219C6.45404 10.3122 6.30937 10.4071 6.09237 10.4974C6.89257 10.3438 7.72894 10.651 8.44325 11.9338C7.59331 15.9629 10.4144 27.1515 10.3782 34.9884C11.7932 43.3358 12.8647 52.3787 17.4851 58.0927C12.1052 51.9903 9.90803 41.2444 8.19912 32.206C6.72982 25.1234 5.50465 19.0164 3.06335 17.0651C2.81922 16.5773 2.57509 16.3288 2.57509 15.841C2.57509 15.1092 2.57509 14.1291 3.06335 13.1534C1.81106 16.0172 1.23238 18.8764 1.39061 21.7402C1.20557 18.7822 1.78142 15.8261 3.06335 13.1534C3.06335 12.9095 3.30748 12.9095 3.30748 12.6656C3.36173 12.5933 3.44763 12.5075 3.5064 12.4352C3.76747 11.985 4.11464 11.5906 4.52813 11.2743C4.77678 10.9988 4.96214 10.7323 5.24696 10.4522C5.00735 10.7052 4.84911 10.9491 4.64115 11.1975C4.76322 11.1162 4.87624 11.0304 5.02091 10.9627C5.23434 10.7232 5.4973 10.5329 5.79158 10.405C6.08587 10.2771 6.40446 10.2146 6.7253 10.2219ZM5.02091 10.9627C5.00283 10.9943 4.98474 11.0078 4.96666 11.044L5.13393 10.9085L5.02091 10.9627ZM71.7497 16.0849L71.7271 16.1527C71.8989 16.1301 72.0662 16.0759 72.238 16.0849C72.0707 16.0759 71.8944 16.1301 71.718 16.1752C67.8165 28.1091 63.1871 40.0429 58.5577 51.9767C58.5551 51.9815 58.5521 51.9861 58.5486 51.9903C58.1553 54.0907 57.4907 55.9833 56.1073 57.3655C58.0649 55.1657 58.3045 51.9858 58.5486 48.0786C58.7927 44.4153 58.7927 40.5082 60.7503 36.5965C60.7503 36.3571 60.7548 36.1222 60.9899 35.8783L60.9944 35.8692C61.433 34.2747 61.9077 32.757 62.4276 31.271C64.3173 25.4441 67.5814 16.9702 71.5282 16.1843C71.6005 16.1572 71.6819 16.0985 71.7542 16.0849M21.1606 73.22L19.6958 73.7079C20.4282 74.6881 20.9165 75.4243 21.4047 75.6637C21.925 75.9694 22.5148 76.1374 23.1182 76.1516C23.3623 76.1516 23.846 76.1516 24.0902 75.9076L27.7611 74.6881C28.0053 74.6881 28.2494 74.4442 28.4935 74.4442C28.9818 74.4442 29.2259 74.4441 29.7142 74.6881L30.9393 75.9076L32.16 75.6637C31.6717 74.932 30.9394 74.2048 30.4511 73.9608C29.9628 73.7169 29.4701 73.464 28.7377 73.464H28.2494L24.3343 74.932H23.6064C23.1136 74.932 22.6299 74.932 22.3858 74.6881C22.1416 74.4441 21.6489 73.9563 21.1606 73.22ZM46.8259 79.3225C45.6052 79.3225 44.6242 79.5754 43.8918 80.3072C42.9153 81.0389 42.6711 82.2585 42.9153 83.7265C42.9153 84.9461 43.4035 85.9218 44.1359 86.902C44.8683 87.8776 45.8493 88.3699 46.8259 88.3699C47.5583 88.3699 48.0465 88.117 48.7834 87.8731C50.0041 87.1413 50.4969 85.9218 50.4969 83.7265C50.4969 82.0146 50.0041 80.795 49.2717 80.0678C48.5551 79.5691 47.699 79.3053 46.8259 79.3225ZM26.536 79.5709C25.3153 79.5709 24.3388 79.8193 23.6064 80.5511C22.6254 81.2828 22.3858 82.5024 22.6299 83.9704C22.6299 85.19 23.1136 86.1657 23.8505 87.1413C24.5875 88.117 25.5595 88.6139 26.536 88.6139C27.2729 88.6139 27.7611 88.3609 28.4935 88.117C29.7142 87.3853 30.2024 86.1657 30.2024 83.9704C30.2024 82.0146 29.7142 80.795 28.9818 80.3117C28.2665 79.8139 27.4121 79.5547 26.5405 79.5709H26.536ZM26.536 82.5069C27.2729 82.5069 27.7611 82.9948 27.7611 83.7265C27.7611 84.4583 27.0242 84.9461 26.5405 84.9461C25.8036 84.9461 25.3198 84.4583 25.3198 83.7265C25.3198 82.9948 25.8036 82.5069 26.5405 82.5069M46.3421 82.7509C47.0745 82.7509 47.5673 83.2342 47.5673 83.9704C47.5673 84.4583 47.0745 85.19 46.3466 85.19C45.6097 85.19 45.126 84.7022 45.126 83.9704C45.126 83.2342 45.6052 82.7509 46.3421 82.7509ZM34.1266 92.2726L34.859 93.7361C35.1064 94.2007 35.4374 94.6157 35.8355 94.9602C36.0796 95.2041 36.5724 95.692 37.0562 95.692H37.5489C38.0372 95.692 38.2768 95.692 38.5209 95.4481C38.7651 95.2041 39.2624 95.2041 39.5065 94.9602L40.2344 94.2285C40.4785 93.9846 40.7226 93.7361 40.7226 93.4922C40.9668 93.2483 40.9668 93.0044 41.2109 92.7605C41.2109 92.5165 41.455 92.2726 41.455 92.2726C41.2109 92.7605 40.7226 93.2483 40.4785 93.7361C39.9902 93.98 39.7506 94.4724 39.2578 94.4724C38.7741 94.7163 38.2813 94.7163 37.7931 94.7163C37.3048 94.7163 36.8165 94.7163 36.5724 94.4724C36.0842 94.4724 35.8355 94.2285 35.5914 93.9846L34.859 93.2483C34.6149 93.0044 34.3707 92.5165 34.1266 92.2726ZM30.2115 96.9161C25.0757 96.9161 21.902 103.755 14.5691 97.6478C12.6161 109.618 27.0378 110.593 33.1501 105.462C37.3093 101.803 36.0796 96.6721 30.2115 96.9161ZM43.1684 96.9161C37.3048 96.6721 36.0796 101.803 40.2389 105.467C46.3466 110.593 60.7639 109.613 58.8108 97.6478C51.4779 103.755 48.5483 96.9161 43.1684 96.9161Z" fill="white"/>
</svg>
